<mxfile host="app.diagrams.net" modified="2022-02-19T21:29:47.283Z" agent="5.0 (Macintosh; Intel Mac OS X 10_15_7) AppleWebKit/537.36 (KHTML, like Gecko) Chrome/98.0.4758.102 Safari/537.36" etag="h0rO3CpTeMpB0TJmB-mG" version="16.6.1" type="github">
  <diagram id="BoIp430dodhDg_gcDwYA" name="Page-3">
    <mxGraphModel dx="2085" dy="1828" grid="1" gridSize="10" guides="1" tooltips="1" connect="1" arrows="0" fold="1" page="1" pageScale="1" pageWidth="850" pageHeight="1100" math="0" shadow="0">
      <root>
        <mxCell id="KGgbT5_K25gZQEBp5rmg-0" />
        <mxCell id="KGgbT5_K25gZQEBp5rmg-1" parent="KGgbT5_K25gZQEBp5rmg-0" />
        <mxCell id="VwJX_3eyOVmkUme_mZv7-0" value="" style="shape=table;html=1;whiteSpace=wrap;startSize=0;container=1;collapsible=0;childLayout=tableLayout;fontSize=13;" parent="KGgbT5_K25gZQEBp5rmg-1" vertex="1">
          <mxGeometry x="1160" y="360" width="470" height="40" as="geometry" />
        </mxCell>
        <mxCell id="VwJX_3eyOVmkUme_mZv7-1" value="" style="shape=tableRow;horizontal=0;startSize=0;swimlaneHead=0;swimlaneBody=0;top=0;left=0;bottom=0;right=0;collapsible=0;dropTarget=0;fillColor=none;points=[[0,0.5],[1,0.5]];portConstraint=eastwest;fontSize=13;" parent="VwJX_3eyOVmkUme_mZv7-0" vertex="1">
          <mxGeometry width="470" height="40" as="geometry" />
        </mxCell>
        <mxCell id="qU5v_BYOY1cG9Y1RaB2Y-3" value="model_id" style="shape=partialRectangle;html=1;whiteSpace=wrap;connectable=0;fillColor=none;top=0;left=0;bottom=0;right=0;overflow=hidden;fontSize=13;" parent="VwJX_3eyOVmkUme_mZv7-1" vertex="1">
          <mxGeometry width="94" height="40" as="geometry">
            <mxRectangle width="94" height="40" as="alternateBounds" />
          </mxGeometry>
        </mxCell>
        <mxCell id="G4xoYnSXij0UiNz9dXRI-1" value="model" style="shape=partialRectangle;html=1;whiteSpace=wrap;connectable=0;fillColor=none;top=0;left=0;bottom=0;right=0;overflow=hidden;fontSize=13;" parent="VwJX_3eyOVmkUme_mZv7-1" vertex="1">
          <mxGeometry x="94" width="95" height="40" as="geometry">
            <mxRectangle width="95" height="40" as="alternateBounds" />
          </mxGeometry>
        </mxCell>
        <mxCell id="VwJX_3eyOVmkUme_mZv7-2" value="body_style" style="shape=partialRectangle;html=1;whiteSpace=wrap;connectable=0;fillColor=none;top=0;left=0;bottom=0;right=0;overflow=hidden;fontSize=13;" parent="VwJX_3eyOVmkUme_mZv7-1" vertex="1">
          <mxGeometry x="189" width="95" height="40" as="geometry">
            <mxRectangle width="95" height="40" as="alternateBounds" />
          </mxGeometry>
        </mxCell>
        <mxCell id="VwJX_3eyOVmkUme_mZv7-16" value="year" style="shape=partialRectangle;html=1;whiteSpace=wrap;connectable=0;fillColor=none;top=0;left=0;bottom=0;right=0;overflow=hidden;fontSize=13;" parent="VwJX_3eyOVmkUme_mZv7-1" vertex="1">
          <mxGeometry x="284" width="93" height="40" as="geometry">
            <mxRectangle width="93" height="40" as="alternateBounds" />
          </mxGeometry>
        </mxCell>
        <mxCell id="QOibZi9mToOQ4PU5pXNe-0" value="trim" style="shape=partialRectangle;html=1;whiteSpace=wrap;connectable=0;fillColor=none;top=0;left=0;bottom=0;right=0;overflow=hidden;fontSize=13;" parent="VwJX_3eyOVmkUme_mZv7-1" vertex="1">
          <mxGeometry x="377" width="93" height="40" as="geometry">
            <mxRectangle width="93" height="40" as="alternateBounds" />
          </mxGeometry>
        </mxCell>
        <mxCell id="KGgbT5_K25gZQEBp5rmg-3" value="" style="shape=table;html=1;whiteSpace=wrap;startSize=0;container=1;collapsible=0;childLayout=tableLayout;fontSize=13;" parent="KGgbT5_K25gZQEBp5rmg-1" vertex="1">
          <mxGeometry x="280" y="360" width="584" height="40" as="geometry" />
        </mxCell>
        <mxCell id="OXqMkUGr_GrGIpzj0Fx3-0" style="shape=tableRow;horizontal=0;startSize=0;swimlaneHead=0;swimlaneBody=0;top=0;left=0;bottom=0;right=0;collapsible=0;dropTarget=0;fillColor=none;points=[[0,0.5],[1,0.5]];portConstraint=eastwest;fontSize=13;" parent="KGgbT5_K25gZQEBp5rmg-3" vertex="1">
          <mxGeometry width="584" height="40" as="geometry" />
        </mxCell>
        <mxCell id="QGWLm1mgJLJdoFcS6bSA-2" value="automobile_id" style="shape=partialRectangle;html=1;whiteSpace=wrap;connectable=0;fillColor=none;top=0;left=0;bottom=0;right=0;overflow=hidden;fontSize=13;" parent="OXqMkUGr_GrGIpzj0Fx3-0" vertex="1">
          <mxGeometry width="98" height="40" as="geometry">
            <mxRectangle width="98" height="40" as="alternateBounds" />
          </mxGeometry>
        </mxCell>
        <mxCell id="OXqMkUGr_GrGIpzj0Fx3-2" value="&lt;font style=&quot;font-size: 13px;&quot;&gt;vin&lt;/font&gt;" style="shape=partialRectangle;html=1;whiteSpace=wrap;connectable=0;fillColor=none;top=0;left=0;bottom=0;right=0;overflow=hidden;fontSize=13;" parent="OXqMkUGr_GrGIpzj0Fx3-0" vertex="1">
          <mxGeometry x="98" width="98" height="40" as="geometry">
            <mxRectangle width="98" height="40" as="alternateBounds" />
          </mxGeometry>
        </mxCell>
        <mxCell id="OXqMkUGr_GrGIpzj0Fx3-3" value="color&amp;nbsp;" style="shape=partialRectangle;html=1;whiteSpace=wrap;connectable=0;fillColor=none;top=0;left=0;bottom=0;right=0;overflow=hidden;fontSize=13;" parent="OXqMkUGr_GrGIpzj0Fx3-0" vertex="1">
          <mxGeometry x="196" width="97" height="40" as="geometry">
            <mxRectangle width="97" height="40" as="alternateBounds" />
          </mxGeometry>
        </mxCell>
        <mxCell id="1KFLzZcMGdWPTmCdkxGo-3" value="sticker_price" style="shape=partialRectangle;html=1;whiteSpace=wrap;connectable=0;fillColor=none;top=0;left=0;bottom=0;right=0;overflow=hidden;fontSize=13;" parent="OXqMkUGr_GrGIpzj0Fx3-0" vertex="1">
          <mxGeometry x="293" width="97" height="40" as="geometry">
            <mxRectangle width="97" height="40" as="alternateBounds" />
          </mxGeometry>
        </mxCell>
        <mxCell id="1KFLzZcMGdWPTmCdkxGo-4" value="&lt;span&gt;purchase_id&lt;/span&gt;" style="shape=partialRectangle;html=1;whiteSpace=wrap;connectable=0;fillColor=none;top=0;left=0;bottom=0;right=0;overflow=hidden;fontSize=13;" parent="OXqMkUGr_GrGIpzj0Fx3-0" vertex="1">
          <mxGeometry x="390" width="97" height="40" as="geometry">
            <mxRectangle width="97" height="40" as="alternateBounds" />
          </mxGeometry>
        </mxCell>
        <mxCell id="1KFLzZcMGdWPTmCdkxGo-7" value="&lt;span&gt;model_id&lt;/span&gt;" style="shape=partialRectangle;html=1;whiteSpace=wrap;connectable=0;fillColor=none;top=0;left=0;bottom=0;right=0;overflow=hidden;fontSize=13;" parent="OXqMkUGr_GrGIpzj0Fx3-0" vertex="1">
          <mxGeometry x="487" width="97" height="40" as="geometry">
            <mxRectangle width="97" height="40" as="alternateBounds" />
          </mxGeometry>
        </mxCell>
        <mxCell id="1sWiY4-_EZPcCfquGDjl-0" value="Automobiles" style="text;html=1;align=center;verticalAlign=middle;resizable=0;points=[];autosize=1;strokeColor=none;fillColor=none;fontSize=13;" parent="KGgbT5_K25gZQEBp5rmg-1" vertex="1">
          <mxGeometry x="280" y="340" width="90" height="20" as="geometry" />
        </mxCell>
        <mxCell id="1KFLzZcMGdWPTmCdkxGo-30" style="edgeStyle=orthogonalEdgeStyle;rounded=0;orthogonalLoop=1;jettySize=auto;html=1;exitX=0.5;exitY=1;exitDx=0;exitDy=0;entryX=0.5;entryY=1;entryDx=0;entryDy=0;endArrow=none;endFill=0;" parent="KGgbT5_K25gZQEBp5rmg-1" source="1sWiY4-_EZPcCfquGDjl-1" target="1KFLzZcMGdWPTmCdkxGo-28" edge="1">
          <mxGeometry relative="1" as="geometry" />
        </mxCell>
        <mxCell id="1sWiY4-_EZPcCfquGDjl-1" value="PK" style="rounded=0;whiteSpace=wrap;html=1;fontSize=13;fillColor=#fff2cc;strokeColor=#d6b656;" parent="KGgbT5_K25gZQEBp5rmg-1" vertex="1">
          <mxGeometry x="280" y="400" width="100" height="40" as="geometry" />
        </mxCell>
        <mxCell id="tk8OxeYLG34lFRzHih61-0" value="Purchase Orders" style="text;html=1;align=center;verticalAlign=middle;resizable=0;points=[];autosize=1;strokeColor=none;fillColor=none;fontSize=13;" parent="KGgbT5_K25gZQEBp5rmg-1" vertex="1">
          <mxGeometry x="280" y="180" width="110" height="20" as="geometry" />
        </mxCell>
        <mxCell id="w5glMQj1M3S8q4JU0Bxx-0" value="" style="shape=table;html=1;whiteSpace=wrap;startSize=0;container=1;collapsible=0;childLayout=tableLayout;fontSize=13;" parent="KGgbT5_K25gZQEBp5rmg-1" vertex="1">
          <mxGeometry x="282" y="200" width="398" height="40" as="geometry" />
        </mxCell>
        <mxCell id="w5glMQj1M3S8q4JU0Bxx-13" style="shape=tableRow;horizontal=0;startSize=0;swimlaneHead=0;swimlaneBody=0;top=0;left=0;bottom=0;right=0;collapsible=0;dropTarget=0;fillColor=none;points=[[0,0.5],[1,0.5]];portConstraint=eastwest;fontSize=13;" parent="w5glMQj1M3S8q4JU0Bxx-0" vertex="1">
          <mxGeometry width="398" height="40" as="geometry" />
        </mxCell>
        <mxCell id="qU5v_BYOY1cG9Y1RaB2Y-0" value="purchase_id" style="shape=partialRectangle;html=1;whiteSpace=wrap;connectable=0;fillColor=none;top=0;left=0;bottom=0;right=0;overflow=hidden;fontSize=13;" parent="w5glMQj1M3S8q4JU0Bxx-13" vertex="1">
          <mxGeometry width="99" height="40" as="geometry">
            <mxRectangle width="99" height="40" as="alternateBounds" />
          </mxGeometry>
        </mxCell>
        <mxCell id="w5glMQj1M3S8q4JU0Bxx-14" value="order_date" style="shape=partialRectangle;html=1;whiteSpace=wrap;connectable=0;fillColor=none;top=0;left=0;bottom=0;right=0;overflow=hidden;fontSize=13;" parent="w5glMQj1M3S8q4JU0Bxx-13" vertex="1">
          <mxGeometry x="99" width="101" height="40" as="geometry">
            <mxRectangle width="101" height="40" as="alternateBounds" />
          </mxGeometry>
        </mxCell>
        <mxCell id="w5glMQj1M3S8q4JU0Bxx-15" value="total_cost" style="shape=partialRectangle;html=1;whiteSpace=wrap;connectable=0;fillColor=none;top=0;left=0;bottom=0;right=0;overflow=hidden;fontSize=13;" parent="w5glMQj1M3S8q4JU0Bxx-13" vertex="1">
          <mxGeometry x="200" width="99" height="40" as="geometry">
            <mxRectangle width="99" height="40" as="alternateBounds" />
          </mxGeometry>
        </mxCell>
        <mxCell id="6EpHUxDR_yMKbRpuZKVZ-1" value="&lt;span&gt;manufacture_id&lt;/span&gt;" style="shape=partialRectangle;html=1;whiteSpace=wrap;connectable=0;fillColor=none;top=0;left=0;bottom=0;right=0;overflow=hidden;fontSize=13;" parent="w5glMQj1M3S8q4JU0Bxx-13" vertex="1">
          <mxGeometry x="299" width="99" height="40" as="geometry">
            <mxRectangle width="99" height="40" as="alternateBounds" />
          </mxGeometry>
        </mxCell>
        <mxCell id="VkmMxpcEDqlsGuS33POQ-0" value="" style="shape=table;html=1;whiteSpace=wrap;startSize=0;container=1;collapsible=0;childLayout=tableLayout;fontSize=13;" parent="KGgbT5_K25gZQEBp5rmg-1" vertex="1">
          <mxGeometry x="280" width="450" height="40" as="geometry" />
        </mxCell>
        <mxCell id="VkmMxpcEDqlsGuS33POQ-1" value="" style="shape=tableRow;horizontal=0;startSize=0;swimlaneHead=0;swimlaneBody=0;top=0;left=0;bottom=0;right=0;collapsible=0;dropTarget=0;fillColor=none;points=[[0,0.5],[1,0.5]];portConstraint=eastwest;fontSize=13;" parent="VkmMxpcEDqlsGuS33POQ-0" vertex="1">
          <mxGeometry width="450" height="40" as="geometry" />
        </mxCell>
        <mxCell id="qU5v_BYOY1cG9Y1RaB2Y-4" value="manufacture_id" style="shape=partialRectangle;html=1;whiteSpace=wrap;connectable=0;fillColor=none;top=0;left=0;bottom=0;right=0;overflow=hidden;fontSize=13;" parent="VkmMxpcEDqlsGuS33POQ-1" vertex="1">
          <mxGeometry width="112" height="40" as="geometry">
            <mxRectangle width="112" height="40" as="alternateBounds" />
          </mxGeometry>
        </mxCell>
        <mxCell id="VkmMxpcEDqlsGuS33POQ-2" value="company_name" style="shape=partialRectangle;html=1;whiteSpace=wrap;connectable=0;fillColor=none;top=0;left=0;bottom=0;right=0;overflow=hidden;fontSize=13;" parent="VkmMxpcEDqlsGuS33POQ-1" vertex="1">
          <mxGeometry x="112" width="114" height="40" as="geometry">
            <mxRectangle width="114" height="40" as="alternateBounds" />
          </mxGeometry>
        </mxCell>
        <mxCell id="VkmMxpcEDqlsGuS33POQ-3" value="phone" style="shape=partialRectangle;html=1;whiteSpace=wrap;connectable=0;fillColor=none;top=0;left=0;bottom=0;right=0;overflow=hidden;fontSize=13;" parent="VkmMxpcEDqlsGuS33POQ-1" vertex="1">
          <mxGeometry x="226" width="112" height="40" as="geometry">
            <mxRectangle width="112" height="40" as="alternateBounds" />
          </mxGeometry>
        </mxCell>
        <mxCell id="VkmMxpcEDqlsGuS33POQ-21" value="address" style="shape=partialRectangle;html=1;whiteSpace=wrap;connectable=0;fillColor=none;top=0;left=0;bottom=0;right=0;overflow=hidden;fontSize=13;" parent="VkmMxpcEDqlsGuS33POQ-1" vertex="1">
          <mxGeometry x="338" width="112" height="40" as="geometry">
            <mxRectangle width="112" height="40" as="alternateBounds" />
          </mxGeometry>
        </mxCell>
        <mxCell id="1KFLzZcMGdWPTmCdkxGo-6" style="edgeStyle=orthogonalEdgeStyle;rounded=0;orthogonalLoop=1;jettySize=auto;html=1;exitX=0.5;exitY=1;exitDx=0;exitDy=0;entryX=0.5;entryY=0;entryDx=0;entryDy=0;endArrow=none;endFill=0;" parent="KGgbT5_K25gZQEBp5rmg-1" source="bCxaFzv6sitYzABQRKhT-1" target="1KFLzZcMGdWPTmCdkxGo-5" edge="1">
          <mxGeometry relative="1" as="geometry" />
        </mxCell>
        <mxCell id="bCxaFzv6sitYzABQRKhT-1" value="PK" style="rounded=0;whiteSpace=wrap;html=1;fontSize=13;fillColor=#fff2cc;strokeColor=#d6b656;" parent="KGgbT5_K25gZQEBp5rmg-1" vertex="1">
          <mxGeometry x="280" y="240" width="100" height="40" as="geometry" />
        </mxCell>
        <mxCell id="bCxaFzv6sitYzABQRKhT-5" value="Manufactures" style="text;html=1;align=center;verticalAlign=middle;resizable=0;points=[];autosize=1;strokeColor=none;fillColor=none;fontSize=13;" parent="KGgbT5_K25gZQEBp5rmg-1" vertex="1">
          <mxGeometry x="276" y="-20" width="108" height="20" as="geometry" />
        </mxCell>
        <mxCell id="1KFLzZcMGdWPTmCdkxGo-2" style="edgeStyle=orthogonalEdgeStyle;rounded=0;orthogonalLoop=1;jettySize=auto;html=1;exitX=0.5;exitY=1;exitDx=0;exitDy=0;entryX=0.5;entryY=0;entryDx=0;entryDy=0;endArrow=none;endFill=0;" parent="KGgbT5_K25gZQEBp5rmg-1" source="13wfVLTrBvWwN3XtXdcd-6" target="1KFLzZcMGdWPTmCdkxGo-1" edge="1">
          <mxGeometry relative="1" as="geometry" />
        </mxCell>
        <mxCell id="13wfVLTrBvWwN3XtXdcd-6" value="PK" style="whiteSpace=wrap;html=1;fontSize=13;fillColor=#fff2cc;strokeColor=#d6b656;" parent="KGgbT5_K25gZQEBp5rmg-1" vertex="1">
          <mxGeometry x="281" y="40" width="110" height="40" as="geometry" />
        </mxCell>
        <mxCell id="0N-tg1GrOTjGaIxoRQ5W-0" value="Models&amp;nbsp;" style="text;html=1;align=center;verticalAlign=middle;resizable=0;points=[];autosize=1;strokeColor=none;fillColor=none;fontSize=13;" parent="KGgbT5_K25gZQEBp5rmg-1" vertex="1">
          <mxGeometry x="1160" y="340" width="60" height="20" as="geometry" />
        </mxCell>
        <mxCell id="tBJF-ueqn9dTTUiDkn_1-0" value="" style="shape=table;html=1;whiteSpace=wrap;startSize=0;container=1;collapsible=0;childLayout=tableLayout;fontSize=13;" parent="KGgbT5_K25gZQEBp5rmg-1" vertex="1">
          <mxGeometry x="282" y="600" width="700" height="40" as="geometry" />
        </mxCell>
        <mxCell id="tBJF-ueqn9dTTUiDkn_1-1" value="" style="shape=tableRow;horizontal=0;startSize=0;swimlaneHead=0;swimlaneBody=0;top=0;left=0;bottom=0;right=0;collapsible=0;dropTarget=0;fillColor=none;points=[[0,0.5],[1,0.5]];portConstraint=eastwest;fontSize=13;" parent="tBJF-ueqn9dTTUiDkn_1-0" vertex="1">
          <mxGeometry width="700" height="40" as="geometry" />
        </mxCell>
        <mxCell id="aaBF4srUtkVbweC9w-cv-1" value="salesContract_id" style="shape=partialRectangle;html=1;whiteSpace=wrap;connectable=0;fillColor=none;top=0;left=0;bottom=0;right=0;overflow=hidden;fontSize=13;" parent="tBJF-ueqn9dTTUiDkn_1-1" vertex="1">
          <mxGeometry width="100" height="40" as="geometry">
            <mxRectangle width="100" height="40" as="alternateBounds" />
          </mxGeometry>
        </mxCell>
        <mxCell id="tBJF-ueqn9dTTUiDkn_1-2" value="dealer" style="shape=partialRectangle;html=1;whiteSpace=wrap;connectable=0;fillColor=none;top=0;left=0;bottom=0;right=0;overflow=hidden;fontSize=13;" parent="tBJF-ueqn9dTTUiDkn_1-1" vertex="1">
          <mxGeometry x="100" width="100" height="40" as="geometry">
            <mxRectangle width="100" height="40" as="alternateBounds" />
          </mxGeometry>
        </mxCell>
        <mxCell id="tBJF-ueqn9dTTUiDkn_1-3" value="sales_price" style="shape=partialRectangle;html=1;whiteSpace=wrap;connectable=0;fillColor=none;top=0;left=0;bottom=0;right=0;overflow=hidden;fontSize=13;" parent="tBJF-ueqn9dTTUiDkn_1-1" vertex="1">
          <mxGeometry x="200" width="100" height="40" as="geometry">
            <mxRectangle width="100" height="40" as="alternateBounds" />
          </mxGeometry>
        </mxCell>
        <mxCell id="tBJF-ueqn9dTTUiDkn_1-4" value="creation" style="shape=partialRectangle;html=1;whiteSpace=wrap;connectable=0;fillColor=none;top=0;left=0;bottom=0;right=0;overflow=hidden;fontSize=13;" parent="tBJF-ueqn9dTTUiDkn_1-1" vertex="1">
          <mxGeometry x="300" width="100" height="40" as="geometry">
            <mxRectangle width="100" height="40" as="alternateBounds" />
          </mxGeometry>
        </mxCell>
        <mxCell id="tBJF-ueqn9dTTUiDkn_1-13" value="delivery_status" style="shape=partialRectangle;html=1;whiteSpace=wrap;connectable=0;fillColor=none;top=0;left=0;bottom=0;right=0;overflow=hidden;fontSize=13;" parent="tBJF-ueqn9dTTUiDkn_1-1" vertex="1">
          <mxGeometry x="400" width="100" height="40" as="geometry">
            <mxRectangle width="100" height="40" as="alternateBounds" />
          </mxGeometry>
        </mxCell>
        <mxCell id="QGWLm1mgJLJdoFcS6bSA-6" value="&lt;span&gt;automobile_id&lt;/span&gt;" style="shape=partialRectangle;html=1;whiteSpace=wrap;connectable=0;fillColor=none;top=0;left=0;bottom=0;right=0;overflow=hidden;fontSize=13;" parent="tBJF-ueqn9dTTUiDkn_1-1" vertex="1">
          <mxGeometry x="500" width="100" height="40" as="geometry">
            <mxRectangle width="100" height="40" as="alternateBounds" />
          </mxGeometry>
        </mxCell>
        <mxCell id="1KFLzZcMGdWPTmCdkxGo-34" value="&lt;span&gt;customer_id&lt;/span&gt;" style="shape=partialRectangle;html=1;whiteSpace=wrap;connectable=0;fillColor=none;top=0;left=0;bottom=0;right=0;overflow=hidden;fontSize=13;" parent="tBJF-ueqn9dTTUiDkn_1-1" vertex="1">
          <mxGeometry x="600" width="100" height="40" as="geometry">
            <mxRectangle width="100" height="40" as="alternateBounds" />
          </mxGeometry>
        </mxCell>
        <mxCell id="BXuTTvJ0Io49gI-96mTp-2" value="PK" style="whiteSpace=wrap;html=1;fontSize=13;fillColor=#fff2cc;strokeColor=#d6b656;" parent="KGgbT5_K25gZQEBp5rmg-1" vertex="1">
          <mxGeometry x="280" y="640" width="100" height="40" as="geometry" />
        </mxCell>
        <mxCell id="BXuTTvJ0Io49gI-96mTp-3" value="Sales Contracts" style="text;html=1;align=center;verticalAlign=middle;resizable=0;points=[];autosize=1;strokeColor=none;fillColor=none;fontSize=13;" parent="KGgbT5_K25gZQEBp5rmg-1" vertex="1">
          <mxGeometry x="281" y="580" width="110" height="20" as="geometry" />
        </mxCell>
        <mxCell id="oQBkhVKg4XWpvBgvVup7-0" value="" style="shape=table;html=1;whiteSpace=wrap;startSize=0;container=1;collapsible=0;childLayout=tableLayout;fontSize=13;" parent="KGgbT5_K25gZQEBp5rmg-1" vertex="1">
          <mxGeometry x="1160" y="605" width="412" height="40" as="geometry" />
        </mxCell>
        <mxCell id="oQBkhVKg4XWpvBgvVup7-1" value="" style="shape=tableRow;horizontal=0;startSize=0;swimlaneHead=0;swimlaneBody=0;top=0;left=0;bottom=0;right=0;collapsible=0;dropTarget=0;fillColor=none;points=[[0,0.5],[1,0.5]];portConstraint=eastwest;fontSize=13;" parent="oQBkhVKg4XWpvBgvVup7-0" vertex="1">
          <mxGeometry width="412" height="40" as="geometry" />
        </mxCell>
        <mxCell id="UXO8BmbpZ2dThSSQkQCN-0" value="customer_id" style="shape=partialRectangle;html=1;whiteSpace=wrap;connectable=0;fillColor=none;top=0;left=0;bottom=0;right=0;overflow=hidden;fontSize=13;" parent="oQBkhVKg4XWpvBgvVup7-1" vertex="1">
          <mxGeometry width="103" height="40" as="geometry">
            <mxRectangle width="103" height="40" as="alternateBounds" />
          </mxGeometry>
        </mxCell>
        <mxCell id="oQBkhVKg4XWpvBgvVup7-2" value="first_name" style="shape=partialRectangle;html=1;whiteSpace=wrap;connectable=0;fillColor=none;top=0;left=0;bottom=0;right=0;overflow=hidden;fontSize=13;" parent="oQBkhVKg4XWpvBgvVup7-1" vertex="1">
          <mxGeometry x="103" width="97" height="40" as="geometry">
            <mxRectangle width="97" height="40" as="alternateBounds" />
          </mxGeometry>
        </mxCell>
        <mxCell id="oQBkhVKg4XWpvBgvVup7-3" value="last_name" style="shape=partialRectangle;html=1;whiteSpace=wrap;connectable=0;fillColor=none;top=0;left=0;bottom=0;right=0;overflow=hidden;fontSize=13;" parent="oQBkhVKg4XWpvBgvVup7-1" vertex="1">
          <mxGeometry x="200" width="108" height="40" as="geometry">
            <mxRectangle width="108" height="40" as="alternateBounds" />
          </mxGeometry>
        </mxCell>
        <mxCell id="oQBkhVKg4XWpvBgvVup7-13" value="phone" style="shape=partialRectangle;html=1;whiteSpace=wrap;connectable=0;fillColor=none;top=0;left=0;bottom=0;right=0;overflow=hidden;fontSize=13;" parent="oQBkhVKg4XWpvBgvVup7-1" vertex="1">
          <mxGeometry x="308" width="104" height="40" as="geometry">
            <mxRectangle width="104" height="40" as="alternateBounds" />
          </mxGeometry>
        </mxCell>
        <mxCell id="1KFLzZcMGdWPTmCdkxGo-36" style="edgeStyle=orthogonalEdgeStyle;rounded=0;orthogonalLoop=1;jettySize=auto;html=1;exitX=0;exitY=0.25;exitDx=0;exitDy=0;entryX=0.5;entryY=0;entryDx=0;entryDy=0;endArrow=none;endFill=0;" parent="KGgbT5_K25gZQEBp5rmg-1" source="RCbVnLmiiK2NnaQCUTZn-2" target="1KFLzZcMGdWPTmCdkxGo-35" edge="1">
          <mxGeometry relative="1" as="geometry" />
        </mxCell>
        <mxCell id="RCbVnLmiiK2NnaQCUTZn-2" value="PK" style="whiteSpace=wrap;html=1;rounded=0;sketch=0;fillColor=#fff2cc;strokeColor=#d6b656;" parent="KGgbT5_K25gZQEBp5rmg-1" vertex="1">
          <mxGeometry x="1160" y="645" width="100" height="40" as="geometry" />
        </mxCell>
        <mxCell id="RCbVnLmiiK2NnaQCUTZn-9" value="&lt;font color=&quot;#000000&quot;&gt;Customers&lt;/font&gt;" style="text;html=1;align=center;verticalAlign=middle;resizable=0;points=[];autosize=1;strokeColor=none;fillColor=none;fontColor=#5AA9E6;" parent="KGgbT5_K25gZQEBp5rmg-1" vertex="1">
          <mxGeometry x="1160" y="585" width="70" height="20" as="geometry" />
        </mxCell>
        <mxCell id="1KFLzZcMGdWPTmCdkxGo-9" style="edgeStyle=orthogonalEdgeStyle;rounded=0;orthogonalLoop=1;jettySize=auto;html=1;exitX=0.5;exitY=1;exitDx=0;exitDy=0;entryX=0.5;entryY=1;entryDx=0;entryDy=0;endArrow=none;endFill=0;" parent="KGgbT5_K25gZQEBp5rmg-1" source="qF9UgehoLa0hUDKB11-5-0" target="1KFLzZcMGdWPTmCdkxGo-8" edge="1">
          <mxGeometry relative="1" as="geometry" />
        </mxCell>
        <mxCell id="qF9UgehoLa0hUDKB11-5-0" value="PK" style="rounded=0;whiteSpace=wrap;html=1;sketch=0;fillColor=#fff2cc;strokeColor=#d6b656;" parent="KGgbT5_K25gZQEBp5rmg-1" vertex="1">
          <mxGeometry x="1160" y="400" width="90" height="40" as="geometry" />
        </mxCell>
        <mxCell id="5Cryda9GgSi9H7belgg4-5" value="1..1" style="text;html=1;align=center;verticalAlign=middle;resizable=0;points=[];autosize=1;strokeColor=none;fillColor=none;fontColor=#000000;" parent="KGgbT5_K25gZQEBp5rmg-1" vertex="1">
          <mxGeometry x="1260" y="650" width="40" height="20" as="geometry" />
        </mxCell>
        <mxCell id="3_MV4tuMppmYxUu7uSWW-1" value="1..*" style="text;html=1;align=center;verticalAlign=middle;resizable=0;points=[];autosize=1;strokeColor=none;fillColor=none;fontColor=#000000;" parent="KGgbT5_K25gZQEBp5rmg-1" vertex="1">
          <mxGeometry x="920" y="1050" width="30" height="20" as="geometry" />
        </mxCell>
        <mxCell id="GY_HYv-C1L0h4qwiiFik-0" value="&amp;nbsp;&amp;nbsp;" style="text;html=1;align=center;verticalAlign=middle;resizable=0;points=[];autosize=1;strokeColor=none;fillColor=none;" parent="KGgbT5_K25gZQEBp5rmg-1" vertex="1">
          <mxGeometry x="-120" y="300" width="20" height="20" as="geometry" />
        </mxCell>
        <mxCell id="1KFLzZcMGdWPTmCdkxGo-1" value="FK" style="whiteSpace=wrap;html=1;fillColor=#dae8fc;strokeColor=#6c8ebf;" parent="KGgbT5_K25gZQEBp5rmg-1" vertex="1">
          <mxGeometry x="580" y="160" width="100" height="40" as="geometry" />
        </mxCell>
        <mxCell id="1KFLzZcMGdWPTmCdkxGo-5" value="FK" style="whiteSpace=wrap;html=1;fillColor=#dae8fc;strokeColor=#6c8ebf;" parent="KGgbT5_K25gZQEBp5rmg-1" vertex="1">
          <mxGeometry x="670" y="310" width="94" height="50" as="geometry" />
        </mxCell>
        <mxCell id="1KFLzZcMGdWPTmCdkxGo-8" value="FK" style="whiteSpace=wrap;html=1;fillColor=#dae8fc;strokeColor=#6c8ebf;" parent="KGgbT5_K25gZQEBp5rmg-1" vertex="1">
          <mxGeometry x="770" y="400" width="96" height="40" as="geometry" />
        </mxCell>
        <mxCell id="1KFLzZcMGdWPTmCdkxGo-10" value="" style="shape=table;html=1;whiteSpace=wrap;startSize=0;container=1;collapsible=0;childLayout=tableLayout;" parent="KGgbT5_K25gZQEBp5rmg-1" vertex="1">
          <mxGeometry x="-280" y="360" width="360" height="40" as="geometry" />
        </mxCell>
        <mxCell id="1KFLzZcMGdWPTmCdkxGo-11" value="" style="shape=tableRow;horizontal=0;startSize=0;swimlaneHead=0;swimlaneBody=0;top=0;left=0;bottom=0;right=0;collapsible=0;dropTarget=0;fillColor=none;points=[[0,0.5],[1,0.5]];portConstraint=eastwest;" parent="1KFLzZcMGdWPTmCdkxGo-10" vertex="1">
          <mxGeometry width="360" height="40" as="geometry" />
        </mxCell>
        <mxCell id="1KFLzZcMGdWPTmCdkxGo-12" value="production_id" style="shape=partialRectangle;html=1;whiteSpace=wrap;connectable=0;fillColor=none;top=0;left=0;bottom=0;right=0;overflow=hidden;" parent="1KFLzZcMGdWPTmCdkxGo-11" vertex="1">
          <mxGeometry width="90" height="40" as="geometry">
            <mxRectangle width="90" height="40" as="alternateBounds" />
          </mxGeometry>
        </mxCell>
        <mxCell id="1KFLzZcMGdWPTmCdkxGo-13" value="process _date" style="shape=partialRectangle;html=1;whiteSpace=wrap;connectable=0;fillColor=none;top=0;left=0;bottom=0;right=0;overflow=hidden;" parent="1KFLzZcMGdWPTmCdkxGo-11" vertex="1">
          <mxGeometry x="90" width="90" height="40" as="geometry">
            <mxRectangle width="90" height="40" as="alternateBounds" />
          </mxGeometry>
        </mxCell>
        <mxCell id="1KFLzZcMGdWPTmCdkxGo-14" value="process" style="shape=partialRectangle;html=1;whiteSpace=wrap;connectable=0;fillColor=none;top=0;left=0;bottom=0;right=0;overflow=hidden;" parent="1KFLzZcMGdWPTmCdkxGo-11" vertex="1">
          <mxGeometry x="180" width="90" height="40" as="geometry">
            <mxRectangle width="90" height="40" as="alternateBounds" />
          </mxGeometry>
        </mxCell>
        <mxCell id="1KFLzZcMGdWPTmCdkxGo-24" value="&lt;span style=&quot;font-size: 13px&quot;&gt;automobile_id&lt;/span&gt;" style="shape=partialRectangle;html=1;whiteSpace=wrap;connectable=0;fillColor=none;top=0;left=0;bottom=0;right=0;overflow=hidden;" parent="1KFLzZcMGdWPTmCdkxGo-11" vertex="1">
          <mxGeometry x="270" width="90" height="40" as="geometry">
            <mxRectangle width="90" height="40" as="alternateBounds" />
          </mxGeometry>
        </mxCell>
        <mxCell id="1KFLzZcMGdWPTmCdkxGo-25" value="Production Logs" style="text;html=1;align=center;verticalAlign=middle;resizable=0;points=[];autosize=1;strokeColor=none;fillColor=none;" parent="KGgbT5_K25gZQEBp5rmg-1" vertex="1">
          <mxGeometry x="-280" y="340" width="100" height="20" as="geometry" />
        </mxCell>
        <mxCell id="1KFLzZcMGdWPTmCdkxGo-27" value="PK" style="whiteSpace=wrap;html=1;fillColor=#fff2cc;strokeColor=#d6b656;" parent="KGgbT5_K25gZQEBp5rmg-1" vertex="1">
          <mxGeometry x="-280" y="400" width="90" height="40" as="geometry" />
        </mxCell>
        <mxCell id="1KFLzZcMGdWPTmCdkxGo-28" value="FK" style="whiteSpace=wrap;html=1;fillColor=#dae8fc;strokeColor=#6c8ebf;" parent="KGgbT5_K25gZQEBp5rmg-1" vertex="1">
          <mxGeometry x="-10" y="400" width="90" height="40" as="geometry" />
        </mxCell>
        <mxCell id="1KFLzZcMGdWPTmCdkxGo-33" style="edgeStyle=orthogonalEdgeStyle;rounded=0;orthogonalLoop=1;jettySize=auto;html=1;exitX=0.5;exitY=0;exitDx=0;exitDy=0;entryX=1;entryY=0.25;entryDx=0;entryDy=0;endArrow=none;endFill=0;" parent="KGgbT5_K25gZQEBp5rmg-1" source="1KFLzZcMGdWPTmCdkxGo-31" target="1sWiY4-_EZPcCfquGDjl-1" edge="1">
          <mxGeometry relative="1" as="geometry">
            <Array as="points">
              <mxPoint x="570" y="550" />
              <mxPoint x="570" y="410" />
            </Array>
          </mxGeometry>
        </mxCell>
        <mxCell id="1KFLzZcMGdWPTmCdkxGo-31" value="FK" style="whiteSpace=wrap;html=1;fillColor=#dae8fc;strokeColor=#6c8ebf;" parent="KGgbT5_K25gZQEBp5rmg-1" vertex="1">
          <mxGeometry x="780" y="550" width="100" height="50" as="geometry" />
        </mxCell>
        <mxCell id="1KFLzZcMGdWPTmCdkxGo-35" value="FK" style="whiteSpace=wrap;html=1;fillColor=#dae8fc;strokeColor=#6c8ebf;" parent="KGgbT5_K25gZQEBp5rmg-1" vertex="1">
          <mxGeometry x="875" y="550" width="105" height="50" as="geometry" />
        </mxCell>
        <mxCell id="1KFLzZcMGdWPTmCdkxGo-37" value="UK" style="whiteSpace=wrap;html=1;fillColor=#d5e8d4;strokeColor=#82b366;" parent="KGgbT5_K25gZQEBp5rmg-1" vertex="1">
          <mxGeometry x="391" y="40" width="120" height="40" as="geometry" />
        </mxCell>
        <mxCell id="1KFLzZcMGdWPTmCdkxGo-40" value="1..1" style="text;html=1;align=center;verticalAlign=middle;resizable=0;points=[];autosize=1;strokeColor=none;fillColor=none;" parent="KGgbT5_K25gZQEBp5rmg-1" vertex="1">
          <mxGeometry x="300" y="80" width="40" height="20" as="geometry" />
        </mxCell>
        <mxCell id="1KFLzZcMGdWPTmCdkxGo-41" value="1..*" style="text;html=1;align=center;verticalAlign=middle;resizable=0;points=[];autosize=1;strokeColor=none;fillColor=none;" parent="KGgbT5_K25gZQEBp5rmg-1" vertex="1">
          <mxGeometry x="630" y="140" width="30" height="20" as="geometry" />
        </mxCell>
        <mxCell id="1KFLzZcMGdWPTmCdkxGo-42" value="1..1" style="text;html=1;align=center;verticalAlign=middle;resizable=0;points=[];autosize=1;strokeColor=none;fillColor=none;" parent="KGgbT5_K25gZQEBp5rmg-1" vertex="1">
          <mxGeometry x="380" y="240" width="40" height="20" as="geometry" />
        </mxCell>
        <mxCell id="1KFLzZcMGdWPTmCdkxGo-43" value="1..*" style="text;html=1;align=center;verticalAlign=middle;resizable=0;points=[];autosize=1;strokeColor=none;fillColor=none;" parent="KGgbT5_K25gZQEBp5rmg-1" vertex="1">
          <mxGeometry x="720" y="290" width="30" height="20" as="geometry" />
        </mxCell>
        <mxCell id="1KFLzZcMGdWPTmCdkxGo-44" value="1..1" style="text;html=1;align=center;verticalAlign=middle;resizable=0;points=[];autosize=1;strokeColor=none;fillColor=none;" parent="KGgbT5_K25gZQEBp5rmg-1" vertex="1">
          <mxGeometry x="380" y="410" width="40" height="20" as="geometry" />
        </mxCell>
        <mxCell id="1KFLzZcMGdWPTmCdkxGo-45" value="1..1" style="text;html=1;align=center;verticalAlign=middle;resizable=0;points=[];autosize=1;strokeColor=none;fillColor=none;" parent="KGgbT5_K25gZQEBp5rmg-1" vertex="1">
          <mxGeometry x="330" y="440" width="40" height="20" as="geometry" />
        </mxCell>
        <mxCell id="1KFLzZcMGdWPTmCdkxGo-46" value="1..*" style="text;html=1;align=center;verticalAlign=middle;resizable=0;points=[];autosize=1;strokeColor=none;fillColor=none;" parent="KGgbT5_K25gZQEBp5rmg-1" vertex="1">
          <mxGeometry x="820" y="440" width="30" height="20" as="geometry" />
        </mxCell>
        <mxCell id="1KFLzZcMGdWPTmCdkxGo-47" value="1..1" style="text;html=1;align=center;verticalAlign=middle;resizable=0;points=[];autosize=1;strokeColor=none;fillColor=none;" parent="KGgbT5_K25gZQEBp5rmg-1" vertex="1">
          <mxGeometry x="1250" y="400" width="40" height="20" as="geometry" />
        </mxCell>
        <mxCell id="1KFLzZcMGdWPTmCdkxGo-48" value="1..*" style="text;html=1;align=center;verticalAlign=middle;resizable=0;points=[];autosize=1;strokeColor=none;fillColor=none;" parent="KGgbT5_K25gZQEBp5rmg-1" vertex="1">
          <mxGeometry x="-40" y="400" width="30" height="20" as="geometry" />
        </mxCell>
        <mxCell id="1KFLzZcMGdWPTmCdkxGo-49" value="1..*" style="text;html=1;align=center;verticalAlign=middle;resizable=0;points=[];autosize=1;strokeColor=none;fillColor=none;" parent="KGgbT5_K25gZQEBp5rmg-1" vertex="1">
          <mxGeometry x="802" y="530" width="30" height="20" as="geometry" />
        </mxCell>
        <mxCell id="1KFLzZcMGdWPTmCdkxGo-50" value="1..*" style="text;html=1;align=center;verticalAlign=middle;resizable=0;points=[];autosize=1;strokeColor=none;fillColor=none;" parent="KGgbT5_K25gZQEBp5rmg-1" vertex="1">
          <mxGeometry x="897" y="530" width="30" height="20" as="geometry" />
        </mxCell>
        <mxCell id="QOibZi9mToOQ4PU5pXNe-4" value="UK" style="whiteSpace=wrap;html=1;fillColor=#d5e8d4;strokeColor=#82b366;" parent="KGgbT5_K25gZQEBp5rmg-1" vertex="1">
          <mxGeometry x="380" y="320" width="100" height="40" as="geometry" />
        </mxCell>
      </root>
    </mxGraphModel>
  </diagram>
</mxfile>
